<mxfile host="65bd71144e">
    <diagram id="B3d6xKt4GkO-Jak7Re-C" name="Página-1">
        <mxGraphModel dx="516" dy="240" grid="1" gridSize="10" guides="1" tooltips="1" connect="1" arrows="1" fold="1" page="1" pageScale="1" pageWidth="1920" pageHeight="1080" math="0" shadow="0">
            <root>
                <mxCell id="0"/>
                <mxCell id="1" parent="0"/>
                <mxCell id="2" value="PLANTAS" style="whiteSpace=wrap;html=1;align=center;strokeWidth=2;" parent="1" vertex="1">
                    <mxGeometry x="380" y="367" width="100" height="40" as="geometry"/>
                </mxCell>
                <mxCell id="3" value="MAQUINAS" style="whiteSpace=wrap;html=1;align=center;strokeWidth=2;" parent="1" vertex="1">
                    <mxGeometry x="1190" y="362" width="100" height="40" as="geometry"/>
                </mxCell>
                <mxCell id="5" value="PROCESOS" style="whiteSpace=wrap;html=1;align=center;strokeWidth=2;" parent="1" vertex="1">
                    <mxGeometry x="790" y="367" width="100" height="40" as="geometry"/>
                </mxCell>
                <mxCell id="6" value="TECNICOS" style="whiteSpace=wrap;html=1;align=center;strokeWidth=2;" parent="1" vertex="1">
                    <mxGeometry x="810" y="537" width="100" height="40" as="geometry"/>
                </mxCell>
                <mxCell id="8" value="COLOR" style="ellipse;whiteSpace=wrap;html=1;align=center;fontStyle=4;strokeWidth=2;" parent="1" vertex="1">
                    <mxGeometry x="250" y="327" width="100" height="40" as="geometry"/>
                </mxCell>
                <mxCell id="10" value="TURNO" style="whiteSpace=wrap;html=1;align=center;strokeWidth=2;" parent="1" vertex="1">
                    <mxGeometry x="1140" y="707" width="100" height="40" as="geometry"/>
                </mxCell>
                <mxCell id="11" value="SUPERFICIE" style="ellipse;whiteSpace=wrap;html=1;align=center;strokeWidth=2;" parent="1" vertex="1">
                    <mxGeometry x="360" y="287" width="100" height="40" as="geometry"/>
                </mxCell>
                <mxCell id="18" value="NOMBRE" style="ellipse;whiteSpace=wrap;html=1;align=center;fontStyle=4;strokeWidth=2;" parent="1" vertex="1">
                    <mxGeometry x="800" y="272" width="100" height="40" as="geometry"/>
                </mxCell>
                <mxCell id="21" value="GRADO" style="ellipse;whiteSpace=wrap;html=1;align=center;fontStyle=0;strokeWidth=2;" parent="1" vertex="1">
                    <mxGeometry x="910" y="302" width="100" height="40" as="geometry"/>
                </mxCell>
                <mxCell id="30" value="" style="endArrow=none;html=1;rounded=0;entryX=0;entryY=0.5;entryDx=0;entryDy=0;exitX=0.5;exitY=1;exitDx=0;exitDy=0;strokeWidth=2;" parent="1" source="8" target="2" edge="1">
                    <mxGeometry relative="1" as="geometry">
                        <mxPoint x="300" y="367" as="sourcePoint"/>
                        <mxPoint x="460" y="367" as="targetPoint"/>
                    </mxGeometry>
                </mxCell>
                <mxCell id="32" value="" style="endArrow=none;html=1;rounded=0;exitX=0.5;exitY=1;exitDx=0;exitDy=0;entryX=0.5;entryY=0;entryDx=0;entryDy=0;strokeWidth=2;" parent="1" source="11" target="2" edge="1">
                    <mxGeometry relative="1" as="geometry">
                        <mxPoint x="350" y="357" as="sourcePoint"/>
                        <mxPoint x="490" y="357" as="targetPoint"/>
                    </mxGeometry>
                </mxCell>
                <mxCell id="34" value="" style="endArrow=none;html=1;rounded=0;exitX=0.89;exitY=-0.002;exitDx=0;exitDy=0;exitPerimeter=0;entryX=0.5;entryY=1;entryDx=0;entryDy=0;strokeWidth=2;" parent="1" source="2" target="94" edge="1">
                    <mxGeometry relative="1" as="geometry">
                        <mxPoint x="410" y="347" as="sourcePoint"/>
                        <mxPoint x="540" y="337" as="targetPoint"/>
                    </mxGeometry>
                </mxCell>
                <mxCell id="40" value="" style="endArrow=none;html=1;rounded=0;exitX=0.482;exitY=0.999;exitDx=0;exitDy=0;exitPerimeter=0;entryX=0.429;entryY=-0.03;entryDx=0;entryDy=0;entryPerimeter=0;strokeWidth=2;" parent="1" source="18" target="5" edge="1">
                    <mxGeometry relative="1" as="geometry">
                        <mxPoint x="820" y="352" as="sourcePoint"/>
                        <mxPoint x="980" y="352" as="targetPoint"/>
                    </mxGeometry>
                </mxCell>
                <mxCell id="41" value="" style="endArrow=none;html=1;rounded=0;exitX=0.481;exitY=1.008;exitDx=0;exitDy=0;exitPerimeter=0;entryX=0.7;entryY=0;entryDx=0;entryDy=0;entryPerimeter=0;strokeWidth=2;" parent="1" source="21" target="5" edge="1">
                    <mxGeometry relative="1" as="geometry">
                        <mxPoint x="888" y="332" as="sourcePoint"/>
                        <mxPoint x="873" y="381" as="targetPoint"/>
                    </mxGeometry>
                </mxCell>
                <mxCell id="42" value="MARCA" style="ellipse;whiteSpace=wrap;html=1;align=center;strokeWidth=2;" parent="1" vertex="1">
                    <mxGeometry x="1080" y="312" width="100" height="40" as="geometry"/>
                </mxCell>
                <mxCell id="43" value="" style="endArrow=none;html=1;rounded=0;exitX=0.99;exitY=0.579;exitDx=0;exitDy=0;entryX=-0.003;entryY=0.318;entryDx=0;entryDy=0;entryPerimeter=0;exitPerimeter=0;strokeWidth=2;" parent="1" source="42" target="3" edge="1">
                    <mxGeometry relative="1" as="geometry">
                        <mxPoint x="1205" y="312" as="sourcePoint"/>
                        <mxPoint x="1190" y="361" as="targetPoint"/>
                    </mxGeometry>
                </mxCell>
                <mxCell id="45" value="MODELO" style="ellipse;whiteSpace=wrap;html=1;align=center;strokeWidth=2;" parent="1" vertex="1">
                    <mxGeometry x="1340" y="312" width="100" height="40" as="geometry"/>
                </mxCell>
                <mxCell id="46" value="" style="endArrow=none;html=1;rounded=0;exitX=0.513;exitY=0.996;exitDx=0;exitDy=0;entryX=1;entryY=0.5;entryDx=0;entryDy=0;exitPerimeter=0;strokeWidth=2;" parent="1" source="45" target="3" edge="1">
                    <mxGeometry relative="1" as="geometry">
                        <mxPoint x="1180" y="322" as="sourcePoint"/>
                        <mxPoint x="1230" y="352" as="targetPoint"/>
                    </mxGeometry>
                </mxCell>
                <mxCell id="49" value="&lt;u&gt;&lt;font style=&quot;color: light-dark(rgb(0, 0, 0), rgb(255, 255, 255));&quot;&gt;CLAVE_TURNO&lt;/font&gt;&lt;/u&gt;" style="ellipse;whiteSpace=wrap;html=1;align=center;strokeWidth=2;" parent="1" vertex="1">
                    <mxGeometry x="1280" y="657" width="120" height="50" as="geometry"/>
                </mxCell>
                <mxCell id="50" value="DESCRIPCIÓN_TURNO" style="ellipse;whiteSpace=wrap;html=1;align=center;strokeWidth=2;" parent="1" vertex="1">
                    <mxGeometry x="1270" y="757" width="170" height="50" as="geometry"/>
                </mxCell>
                <mxCell id="51" value="" style="endArrow=none;html=1;rounded=0;entryX=0.005;entryY=0.563;entryDx=0;entryDy=0;entryPerimeter=0;exitX=1.001;exitY=0.457;exitDx=0;exitDy=0;exitPerimeter=0;strokeWidth=2;" parent="1" source="10" target="49" edge="1">
                    <mxGeometry relative="1" as="geometry">
                        <mxPoint x="1160" y="737" as="sourcePoint"/>
                        <mxPoint x="1320" y="737" as="targetPoint"/>
                    </mxGeometry>
                </mxCell>
                <mxCell id="55" value="" style="endArrow=none;html=1;rounded=0;exitX=0.998;exitY=1;exitDx=0;exitDy=0;exitPerimeter=0;entryX=0.079;entryY=0.24;entryDx=0;entryDy=0;entryPerimeter=0;strokeWidth=2;" parent="1" source="10" target="50" edge="1">
                    <mxGeometry relative="1" as="geometry">
                        <mxPoint x="1170" y="767" as="sourcePoint"/>
                        <mxPoint x="1330" y="767" as="targetPoint"/>
                    </mxGeometry>
                </mxCell>
                <mxCell id="86" style="edgeStyle=none;shape=connector;rounded=1;html=1;entryX=0;entryY=0.5;entryDx=0;entryDy=0;strokeColor=default;align=center;verticalAlign=middle;fontFamily=Helvetica;fontSize=11;fontColor=default;labelBackgroundColor=default;endArrow=none;endFill=0;strokeWidth=2;" parent="1" source="56" target="85" edge="1">
                    <mxGeometry relative="1" as="geometry"/>
                </mxCell>
                <mxCell id="89" style="edgeStyle=none;shape=connector;rounded=1;html=1;strokeColor=default;align=center;verticalAlign=middle;fontFamily=Helvetica;fontSize=11;fontColor=default;labelBackgroundColor=default;endArrow=none;endFill=0;strokeWidth=2;" parent="1" source="56" target="88" edge="1">
                    <mxGeometry relative="1" as="geometry"/>
                </mxCell>
                <mxCell id="56" value="ESTATUS" style="whiteSpace=wrap;html=1;align=center;strokeWidth=2;" parent="1" vertex="1">
                    <mxGeometry x="1430" y="552" width="100" height="40" as="geometry"/>
                </mxCell>
                <mxCell id="57" value="DNI" style="ellipse;whiteSpace=wrap;html=1;align=center;fontStyle=4;strokeWidth=2;" parent="1" vertex="1">
                    <mxGeometry x="620" y="517" width="100" height="40" as="geometry"/>
                </mxCell>
                <mxCell id="58" value="FECHA_NACIMIENTO" style="ellipse;whiteSpace=wrap;html=1;align=center;strokeWidth=2;" parent="1" vertex="1">
                    <mxGeometry x="690" y="457" width="170" height="40" as="geometry"/>
                </mxCell>
                <mxCell id="66" style="edgeStyle=none;shape=connector;rounded=1;html=1;entryX=0;entryY=0.5;entryDx=0;entryDy=0;strokeColor=default;align=center;verticalAlign=middle;fontFamily=Helvetica;fontSize=11;fontColor=default;labelBackgroundColor=default;endArrow=none;endFill=0;strokeWidth=2;" parent="1" source="60" target="6" edge="1">
                    <mxGeometry relative="1" as="geometry"/>
                </mxCell>
                <mxCell id="71" value="" style="edgeStyle=none;shape=connector;rounded=1;html=1;strokeColor=default;align=center;verticalAlign=middle;fontFamily=Helvetica;fontSize=11;fontColor=default;labelBackgroundColor=default;endArrow=none;endFill=0;strokeWidth=2;" parent="1" source="60" target="70" edge="1">
                    <mxGeometry relative="1" as="geometry"/>
                </mxCell>
                <mxCell id="73" value="" style="edgeStyle=none;shape=connector;rounded=1;html=1;strokeColor=default;align=center;verticalAlign=middle;fontFamily=Helvetica;fontSize=11;fontColor=default;labelBackgroundColor=default;endArrow=none;endFill=0;strokeWidth=2;" parent="1" source="60" target="70" edge="1">
                    <mxGeometry relative="1" as="geometry"/>
                </mxCell>
                <mxCell id="74" value="" style="edgeStyle=none;shape=connector;rounded=1;html=1;strokeColor=default;align=center;verticalAlign=middle;fontFamily=Helvetica;fontSize=11;fontColor=default;labelBackgroundColor=default;endArrow=none;endFill=0;strokeWidth=2;" parent="1" source="60" target="70" edge="1">
                    <mxGeometry relative="1" as="geometry"/>
                </mxCell>
                <mxCell id="60" value="NOMBRE" style="ellipse;whiteSpace=wrap;html=1;align=center;strokeWidth=2;" parent="1" vertex="1">
                    <mxGeometry x="600" y="587" width="100" height="40" as="geometry"/>
                </mxCell>
                <mxCell id="64" style="edgeStyle=none;html=1;entryX=0;entryY=0.25;entryDx=0;entryDy=0;endArrow=none;endFill=0;strokeWidth=2;" parent="1" source="57" target="6" edge="1">
                    <mxGeometry relative="1" as="geometry"/>
                </mxCell>
                <mxCell id="70" value="NOMBRES" style="ellipse;whiteSpace=wrap;html=1;align=center;strokeWidth=2;" parent="1" vertex="1">
                    <mxGeometry x="520" y="637" width="100" height="40" as="geometry"/>
                </mxCell>
                <mxCell id="72" style="edgeStyle=none;shape=connector;rounded=1;html=1;entryX=0.521;entryY=0.011;entryDx=0;entryDy=0;entryPerimeter=0;strokeColor=default;align=center;verticalAlign=middle;fontFamily=Helvetica;fontSize=11;fontColor=default;labelBackgroundColor=default;endArrow=none;endFill=0;strokeWidth=2;" parent="1" source="58" target="6" edge="1">
                    <mxGeometry relative="1" as="geometry"/>
                </mxCell>
                <mxCell id="77" style="edgeStyle=none;shape=connector;rounded=1;html=1;strokeColor=default;align=center;verticalAlign=middle;fontFamily=Helvetica;fontSize=11;fontColor=default;labelBackgroundColor=default;endArrow=none;endFill=0;strokeWidth=2;" parent="1" source="76" target="60" edge="1">
                    <mxGeometry relative="1" as="geometry"/>
                </mxCell>
                <mxCell id="76" value="APELLIDO_MATERNO" style="ellipse;whiteSpace=wrap;html=1;align=center;fontFamily=Helvetica;fontSize=11;fontColor=default;labelBackgroundColor=default;strokeWidth=2;" parent="1" vertex="1">
                    <mxGeometry x="550" y="687" width="180" height="40" as="geometry"/>
                </mxCell>
                <mxCell id="78" value="APELLIDO_PATERNO" style="ellipse;whiteSpace=wrap;html=1;align=center;fontFamily=Helvetica;fontSize=11;fontColor=default;labelBackgroundColor=default;strokeWidth=2;" parent="1" vertex="1">
                    <mxGeometry x="670" y="637" width="180" height="40" as="geometry"/>
                </mxCell>
                <mxCell id="79" style="edgeStyle=none;shape=connector;rounded=1;html=1;exitX=1;exitY=1;exitDx=0;exitDy=0;entryX=0.178;entryY=0.119;entryDx=0;entryDy=0;entryPerimeter=0;strokeColor=default;align=center;verticalAlign=middle;fontFamily=Helvetica;fontSize=11;fontColor=default;labelBackgroundColor=default;endArrow=none;endFill=0;strokeWidth=2;" parent="1" source="60" target="78" edge="1">
                    <mxGeometry relative="1" as="geometry"/>
                </mxCell>
                <mxCell id="81" style="edgeStyle=none;shape=connector;rounded=1;html=1;entryX=0.75;entryY=0;entryDx=0;entryDy=0;strokeColor=default;align=center;verticalAlign=middle;fontFamily=Helvetica;fontSize=11;fontColor=default;labelBackgroundColor=default;endArrow=none;endFill=0;strokeWidth=2;" parent="1" source="80" target="6" edge="1">
                    <mxGeometry relative="1" as="geometry"/>
                </mxCell>
                <mxCell id="80" value="TELÉFONOS" style="ellipse;shape=doubleEllipse;margin=3;whiteSpace=wrap;html=1;align=center;fontFamily=Helvetica;fontSize=11;fontColor=default;labelBackgroundColor=default;strokeWidth=2;" parent="1" vertex="1">
                    <mxGeometry x="870" y="427" width="100" height="40" as="geometry"/>
                </mxCell>
                <mxCell id="85" value="CLAVE_ESTATUS" style="ellipse;whiteSpace=wrap;html=1;align=center;fontStyle=4;fontFamily=Helvetica;fontSize=11;fontColor=default;labelBackgroundColor=default;strokeWidth=2;" parent="1" vertex="1">
                    <mxGeometry x="1590" y="512" width="130" height="50" as="geometry"/>
                </mxCell>
                <mxCell id="88" value="DESCRIPCIÓN_ESTATUS" style="ellipse;whiteSpace=wrap;html=1;align=center;fontFamily=Helvetica;fontSize=11;fontColor=default;labelBackgroundColor=default;strokeWidth=2;" parent="1" vertex="1">
                    <mxGeometry x="1580" y="597" width="180" height="40" as="geometry"/>
                </mxCell>
                <mxCell id="92" style="edgeStyle=none;shape=connector;rounded=1;html=1;entryX=0.5;entryY=0;entryDx=0;entryDy=0;strokeColor=default;align=center;verticalAlign=middle;fontFamily=Helvetica;fontSize=11;fontColor=default;labelBackgroundColor=default;endArrow=none;endFill=0;strokeWidth=2;" parent="1" source="91" target="3" edge="1">
                    <mxGeometry relative="1" as="geometry"/>
                </mxCell>
                <mxCell id="91" value="NÚMERO" style="ellipse;whiteSpace=wrap;html=1;align=center;fontFamily=Helvetica;fontSize=11;fontColor=default;labelBackgroundColor=default;fontStyle=4;strokeWidth=2;" parent="1" vertex="1">
                    <mxGeometry x="1220" y="272" width="100" height="40" as="geometry"/>
                </mxCell>
                <mxCell id="94" value="LISTA_PROCESOS" style="ellipse;shape=doubleEllipse;margin=3;whiteSpace=wrap;html=1;align=center;fontFamily=Helvetica;fontSize=11;fontColor=default;labelBackgroundColor=default;strokeWidth=2;" parent="1" vertex="1">
                    <mxGeometry x="470" y="287" width="140" height="50" as="geometry"/>
                </mxCell>
                <mxCell id="97" value="TIENE" style="shape=rhombus;perimeter=rhombusPerimeter;whiteSpace=wrap;html=1;align=center;fontFamily=Helvetica;fontSize=11;fontColor=default;labelBackgroundColor=default;strokeWidth=2;" parent="1" vertex="1">
                    <mxGeometry x="590" y="357" width="120" height="60" as="geometry"/>
                </mxCell>
                <mxCell id="107" value="REALIZAN" style="shape=rhombus;perimeter=rhombusPerimeter;whiteSpace=wrap;html=1;align=center;fontFamily=Helvetica;fontSize=11;fontColor=default;labelBackgroundColor=default;strokeWidth=2;" parent="1" vertex="1">
                    <mxGeometry x="970" y="362" width="110" height="50" as="geometry"/>
                </mxCell>
                <mxCell id="114" value="" style="edgeStyle=entityRelationEdgeStyle;fontSize=12;html=1;endArrow=ERmandOne;startArrow=ERmandOne;rounded=1;strokeColor=default;align=center;verticalAlign=middle;fontFamily=Helvetica;fontColor=default;labelBackgroundColor=default;exitX=1;exitY=0.5;exitDx=0;exitDy=0;entryX=0;entryY=0.5;entryDx=0;entryDy=0;strokeWidth=2;" parent="1" source="5" target="107" edge="1">
                    <mxGeometry width="100" height="100" relative="1" as="geometry">
                        <mxPoint x="850" y="467" as="sourcePoint"/>
                        <mxPoint x="950" y="367" as="targetPoint"/>
                    </mxGeometry>
                </mxCell>
                <mxCell id="115" value="" style="edgeStyle=entityRelationEdgeStyle;fontSize=12;html=1;endArrow=ERmandOne;startArrow=ERmandOne;rounded=1;strokeColor=default;align=center;verticalAlign=middle;fontFamily=Helvetica;fontColor=default;labelBackgroundColor=default;entryX=0.003;entryY=0.585;entryDx=0;entryDy=0;entryPerimeter=0;exitX=1;exitY=0.5;exitDx=0;exitDy=0;strokeWidth=2;" parent="1" source="107" target="3" edge="1">
                    <mxGeometry width="100" height="100" relative="1" as="geometry">
                        <mxPoint x="1030" y="497" as="sourcePoint"/>
                        <mxPoint x="1130" y="397" as="targetPoint"/>
                    </mxGeometry>
                </mxCell>
                <mxCell id="117" value="" style="edgeStyle=entityRelationEdgeStyle;fontSize=12;html=1;endArrow=ERoneToMany;rounded=1;strokeColor=default;align=center;verticalAlign=middle;fontFamily=Helvetica;fontColor=default;labelBackgroundColor=default;exitX=1;exitY=0.5;exitDx=0;exitDy=0;entryX=0;entryY=0.5;entryDx=0;entryDy=0;strokeWidth=2;" parent="1" source="2" target="97" edge="1">
                    <mxGeometry width="100" height="100" relative="1" as="geometry">
                        <mxPoint x="710" y="537" as="sourcePoint"/>
                        <mxPoint x="810" y="437" as="targetPoint"/>
                    </mxGeometry>
                </mxCell>
                <mxCell id="118" value="" style="edgeStyle=entityRelationEdgeStyle;fontSize=12;html=1;endArrow=ERoneToMany;rounded=1;strokeColor=default;align=center;verticalAlign=middle;fontFamily=Helvetica;fontColor=default;labelBackgroundColor=default;exitX=1;exitY=0.5;exitDx=0;exitDy=0;entryX=0;entryY=0.5;entryDx=0;entryDy=0;strokeWidth=2;" parent="1" source="97" target="5" edge="1">
                    <mxGeometry width="100" height="100" relative="1" as="geometry">
                        <mxPoint x="690" y="447" as="sourcePoint"/>
                        <mxPoint x="790" y="347" as="targetPoint"/>
                    </mxGeometry>
                </mxCell>
                <mxCell id="119" value="OPERAN" style="shape=rhombus;perimeter=rhombusPerimeter;whiteSpace=wrap;html=1;align=center;fontFamily=Helvetica;fontSize=11;fontColor=default;labelBackgroundColor=default;strokeWidth=2;" parent="1" vertex="1">
                    <mxGeometry x="1000" y="457" width="120" height="60" as="geometry"/>
                </mxCell>
                <mxCell id="121" value="" style="fontSize=12;html=1;endArrow=ERmandOne;startArrow=ERmandOne;rounded=1;strokeColor=default;align=center;verticalAlign=middle;fontFamily=Helvetica;fontColor=default;labelBackgroundColor=default;entryX=0.5;entryY=1;entryDx=0;entryDy=0;exitX=1;exitY=0.5;exitDx=0;exitDy=0;elbow=vertical;edgeStyle=orthogonalEdgeStyle;curved=0;strokeWidth=2;" parent="1" source="119" target="3" edge="1">
                    <mxGeometry width="100" height="100" relative="1" as="geometry">
                        <mxPoint x="910" y="617" as="sourcePoint"/>
                        <mxPoint x="1010" y="517" as="targetPoint"/>
                    </mxGeometry>
                </mxCell>
                <mxCell id="122" value="" style="edgeStyle=entityRelationEdgeStyle;fontSize=12;html=1;endArrow=ERoneToMany;rounded=1;strokeColor=default;align=center;verticalAlign=middle;fontFamily=Helvetica;fontColor=default;labelBackgroundColor=default;exitX=1;exitY=0.5;exitDx=0;exitDy=0;entryX=0;entryY=0.5;entryDx=0;entryDy=0;strokeWidth=2;" parent="1" source="6" target="119" edge="1">
                    <mxGeometry width="100" height="100" relative="1" as="geometry">
                        <mxPoint x="1070" y="607" as="sourcePoint"/>
                        <mxPoint x="990" y="507" as="targetPoint"/>
                    </mxGeometry>
                </mxCell>
                <mxCell id="123" value="TIENEN" style="shape=rhombus;perimeter=rhombusPerimeter;whiteSpace=wrap;html=1;align=center;fontFamily=Helvetica;fontSize=11;fontColor=default;labelBackgroundColor=default;strokeWidth=2;" parent="1" vertex="1">
                    <mxGeometry x="965" y="587" width="120" height="60" as="geometry"/>
                </mxCell>
                <mxCell id="124" value="" style="fontSize=12;html=1;endArrow=ERmandOne;startArrow=ERmandOne;rounded=1;strokeColor=default;align=center;verticalAlign=middle;fontFamily=Helvetica;fontColor=default;labelBackgroundColor=default;entryX=0.5;entryY=1;entryDx=0;entryDy=0;edgeStyle=orthogonalEdgeStyle;exitX=0;exitY=0.5;exitDx=0;exitDy=0;strokeWidth=2;" parent="1" source="123" target="6" edge="1">
                    <mxGeometry width="100" height="100" relative="1" as="geometry">
                        <mxPoint x="960" y="617" as="sourcePoint"/>
                        <mxPoint x="1080" y="517" as="targetPoint"/>
                    </mxGeometry>
                </mxCell>
                <mxCell id="125" value="" style="edgeStyle=orthogonalEdgeStyle;fontSize=12;html=1;endArrow=ERmandOne;startArrow=ERmandOne;rounded=1;strokeColor=default;align=center;verticalAlign=middle;fontFamily=Helvetica;fontColor=default;labelBackgroundColor=default;entryX=1;entryY=0.5;entryDx=0;entryDy=0;exitX=-0.012;exitY=0.563;exitDx=0;exitDy=0;exitPerimeter=0;strokeWidth=2;" parent="1" source="10" target="123" edge="1">
                    <mxGeometry width="100" height="100" relative="1" as="geometry">
                        <mxPoint x="1060" y="707" as="sourcePoint"/>
                        <mxPoint x="1160" y="607" as="targetPoint"/>
                    </mxGeometry>
                </mxCell>
                <mxCell id="126" value="ESTÁN" style="shape=rhombus;perimeter=rhombusPerimeter;whiteSpace=wrap;html=1;align=center;fontFamily=Helvetica;fontSize=11;fontColor=default;labelBackgroundColor=default;strokeWidth=2;" parent="1" vertex="1">
                    <mxGeometry x="1320" y="457" width="120" height="60" as="geometry"/>
                </mxCell>
                <mxCell id="127" value="" style="edgeStyle=orthogonalEdgeStyle;fontSize=12;html=1;endArrow=ERmandOne;startArrow=ERmandOne;rounded=1;strokeColor=default;align=center;verticalAlign=middle;fontFamily=Helvetica;fontColor=default;labelBackgroundColor=default;entryX=0.838;entryY=1.008;entryDx=0;entryDy=0;entryPerimeter=0;exitX=0;exitY=0.5;exitDx=0;exitDy=0;strokeWidth=2;" parent="1" source="126" target="3" edge="1">
                    <mxGeometry width="100" height="100" relative="1" as="geometry">
                        <mxPoint x="1360" y="557" as="sourcePoint"/>
                        <mxPoint x="1460" y="457" as="targetPoint"/>
                    </mxGeometry>
                </mxCell>
                <mxCell id="128" value="" style="edgeStyle=orthogonalEdgeStyle;fontSize=12;html=1;endArrow=ERmandOne;startArrow=ERmandOne;rounded=1;strokeColor=default;align=center;verticalAlign=middle;fontFamily=Helvetica;fontColor=default;labelBackgroundColor=default;entryX=1;entryY=0.5;entryDx=0;entryDy=0;exitX=0.5;exitY=0;exitDx=0;exitDy=0;strokeWidth=2;" parent="1" source="56" target="126" edge="1">
                    <mxGeometry width="100" height="100" relative="1" as="geometry">
                        <mxPoint x="1460" y="587" as="sourcePoint"/>
                        <mxPoint x="1560" y="487" as="targetPoint"/>
                    </mxGeometry>
                </mxCell>
                <mxCell id="133" style="edgeStyle=none;shape=connector;rounded=1;html=1;entryX=0.5;entryY=0;entryDx=0;entryDy=0;strokeColor=default;align=center;verticalAlign=middle;fontFamily=Helvetica;fontSize=11;fontColor=default;labelBackgroundColor=default;endArrow=none;endFill=0;strokeWidth=2;" parent="1" source="129" target="131" edge="1">
                    <mxGeometry relative="1" as="geometry"/>
                </mxCell>
                <mxCell id="129" value="RANGO_FECHA" style="ellipse;whiteSpace=wrap;html=1;align=center;fontFamily=Helvetica;fontSize=11;fontColor=default;labelBackgroundColor=default;strokeWidth=2;" parent="1" vertex="1">
                    <mxGeometry x="1105" y="520" width="100" height="40" as="geometry"/>
                </mxCell>
                <mxCell id="131" value="INICIO" style="ellipse;whiteSpace=wrap;html=1;align=center;fontStyle=0;fontFamily=Helvetica;fontSize=11;fontColor=default;labelBackgroundColor=default;strokeWidth=2;" parent="1" vertex="1">
                    <mxGeometry x="1105" y="577" width="50" height="30" as="geometry"/>
                </mxCell>
                <mxCell id="132" value="FIN" style="ellipse;whiteSpace=wrap;html=1;align=center;fontStyle=0;fontFamily=Helvetica;fontSize=11;fontColor=default;labelBackgroundColor=default;strokeWidth=2;" parent="1" vertex="1">
                    <mxGeometry x="1180" y="577" width="50" height="30" as="geometry"/>
                </mxCell>
                <mxCell id="134" value="" style="endArrow=none;html=1;rounded=0;strokeColor=default;align=center;verticalAlign=middle;fontFamily=Helvetica;fontSize=11;fontColor=default;labelBackgroundColor=default;edgeStyle=none;exitX=0.765;exitY=0.912;exitDx=0;exitDy=0;exitPerimeter=0;entryX=0.384;entryY=-0.004;entryDx=0;entryDy=0;entryPerimeter=0;strokeWidth=2;" parent="1" source="129" target="132" edge="1">
                    <mxGeometry relative="1" as="geometry">
                        <mxPoint x="1190" y="587" as="sourcePoint"/>
                        <mxPoint x="1230" y="577" as="targetPoint"/>
                    </mxGeometry>
                </mxCell>
                <mxCell id="135" value="" style="endArrow=none;html=1;rounded=0;strokeColor=default;align=center;verticalAlign=middle;fontFamily=Helvetica;fontSize=11;fontColor=default;labelBackgroundColor=default;edgeStyle=orthogonalEdgeStyle;exitX=0.501;exitY=0.992;exitDx=0;exitDy=0;exitPerimeter=0;entryX=0;entryY=0.5;entryDx=0;entryDy=0;strokeWidth=2;" parent="1" source="119" target="129" edge="1">
                    <mxGeometry relative="1" as="geometry">
                        <mxPoint x="950" y="547" as="sourcePoint"/>
                        <mxPoint x="1110" y="547" as="targetPoint"/>
                    </mxGeometry>
                </mxCell>
            </root>
        </mxGraphModel>
    </diagram>
</mxfile>